<svg width="45" height="52" viewBox="0 0 45 52" fill="none" xmlns="http://www.w3.org/2000/svg">
<path opacity="0.6" d="M22.2469 22.3765C20.6367 22.5662 18.9713 22.6673 17.2806 22.6673C9.15098 22.6673 2.08162 20.3827 0.000526832 17.3765L0.000939275 9.70139C2.71977 12.5799 9.34441 14.5657 17.2811 14.5657C25.2173 14.5657 31.8413 12.5798 34.5612 9.70181V13.9958C29.4679 13.9962 23.9774 16.9722 22.2469 22.3765ZM0.00105527 19.2155C3.0568 22.0176 9.56805 23.9104 17.2812 23.9104C18.8361 23.9104 20.3724 23.8275 21.8672 23.6707C21.6506 24.5938 21.5244 25.5511 21.5244 26.5389C21.5244 28.2306 21.8651 29.8425 22.4735 31.317C20.7949 31.5245 19.0551 31.6362 17.282 31.6362C9.15238 31.6362 2.08301 29.3517 0.00192044 26.3455L0.00105527 19.2155ZM17.2801 0C27.4629 0 34.5602 3.41748 34.5602 6.48443V7.36499C33.7358 10.3474 27.0018 13.3228 17.2801 13.3228C7.55717 13.3228 0.822511 10.3462 0 7.36372V6.48522C0.000412522 3.41785 7.09693 0 17.2801 0ZM17.2801 40.0919C7.09735 40.0919 0 36.6744 0 33.6074V28.1847C3.05575 30.9868 9.56699 32.8795 17.2801 32.8795C19.2466 32.8795 21.1764 32.7484 23.0296 32.5001C23.7439 33.8199 24.6946 34.99 25.8131 35.9733L24.9841 39.3583C22.5182 39.8713 20.0637 40.0919 17.2801 40.0919Z" fill="white"/>
<path d="M44.1724 26.5387C44.1724 32.098 39.6491 36.6213 34.0907 36.6213C28.5322 36.6213 24.0094 32.0985 24.0094 26.5387C24.0094 20.9795 28.5322 16.457 34.0907 16.457C39.6491 16.457 44.1724 20.9799 44.1724 26.5387ZM33.4988 20.5628L32.2029 24.552H28.0083C27.7386 24.552 27.5006 24.7252 27.4169 24.9813C27.3336 25.2374 27.4247 25.5175 27.6429 25.6759L31.0361 28.1411L29.7402 32.1302C29.6569 32.3863 29.7419 32.6754 29.9663 32.8247C30.2727 33.0297 30.5882 32.9039 30.6971 32.8247L34.0899 30.3591L37.4831 32.8247C37.7017 32.9831 37.9949 32.9831 38.2139 32.8247C38.4321 32.6664 38.5224 32.3859 38.44 32.1302L37.1433 28.1411L40.5365 25.6759C40.7546 25.5175 40.845 25.237 40.7625 24.9813C40.6792 24.7252 40.4408 24.552 40.171 24.552H35.9769L34.6802 20.5628C34.5968 20.3067 34.3585 20.1335 34.0887 20.1335C33.8194 20.1335 33.5821 20.3067 33.4988 20.5628ZM44.6444 50.5844L40.6763 35.3885C38.9012 36.9269 36.5869 37.8598 34.0532 37.8598C31.3872 37.8598 28.9628 36.8271 27.1555 35.1419L23.4641 50.5257C23.3841 51.0222 23.611 51.518 24.0387 51.7816C24.4668 52.0464 25.012 52.0258 25.4187 51.7313L34.0684 45.484L42.6815 51.78C42.8992 51.9392 43.5963 52.152 44.0619 51.8377C44.4809 51.5568 44.7227 51.0809 44.6444 50.5844Z" fill="white"/>
</svg>
