<svg width="50" height="52" viewBox="0 0 50 52" fill="none" xmlns="http://www.w3.org/2000/svg">
<path d="M27.2341 37.18C28.9323 36.2056 29.9855 34.4033 30.0007 32.4458C29.7686 25.1686 19.2127 25.1825 18.9845 32.4462C19.0002 34.4036 20.0534 36.2056 21.7511 37.18C23.4493 38.1545 25.5364 38.1545 27.2341 37.18Z" fill="white" fill-opacity="0.6"/>
<path d="M9.79447 40.4107C17.0594 40.1734 17.0688 29.6259 9.79447 29.3949C7.83739 29.4114 6.03666 30.4645 5.06265 32.1619C4.08904 33.8593 4.08904 35.946 5.06306 37.6433C6.03671 39.3407 7.83781 40.3943 9.79447 40.4107Z" fill="white" fill-opacity="0.6"/>
<path d="M8.32286 51.9196C11.2855 52.238 14.2707 51.5836 16.8284 50.0549C13.1962 48.0571 11.0534 45.9864 12.907 41.6854H5.57932C4.10109 41.6866 2.68358 42.2746 1.63817 43.32C0.59273 44.365 0.00519994 45.7826 0.00396906 47.2608C-0.0267951 47.6481 0.12254 48.0276 0.408103 48.2902C2.5826 50.3273 5.36061 51.6012 8.32286 51.9196Z" fill="white" fill-opacity="0.6"/>
<path d="M41.9386 39.6303C43.6368 38.656 44.69 36.854 44.7052 34.8965C44.4731 27.6189 33.9172 27.6333 33.689 34.8965C33.7047 36.8539 34.7578 38.6563 36.4556 39.6303C38.1538 40.6048 40.2409 40.6048 41.9386 39.6303Z" fill="white" fill-opacity="0.6"/>
<path d="M14.7323 44.2211C14.5858 44.7901 14.7277 45.3945 15.1122 45.8388C17.6691 48.2058 21.0244 49.5216 24.5085 49.5236C27.9927 49.526 31.3496 48.2148 33.9098 45.8511C34.1983 45.5848 34.3476 45.2004 34.314 44.8094C34.3087 43.3323 33.7191 41.9177 32.6749 40.8731C31.6303 39.829 30.2156 39.2398 28.7386 39.2341H20.2835C18.9073 39.2398 17.5817 39.751 16.558 40.6705C15.5348 41.5899 14.8849 42.854 14.7323 44.2211Z" fill="white" fill-opacity="0.6"/>
<path d="M48.6148 48.3018C48.9032 48.0359 49.0525 47.651 49.0189 47.26C49.0176 45.7818 48.4301 44.3643 47.3847 43.3189C46.3393 42.2739 44.9218 41.6859 43.4436 41.6847H36.1154C37.9572 46.1815 35.8778 47.9428 32.1943 50.0541C34.7513 51.5828 37.7357 52.2385 40.6975 51.9226C43.6593 51.6062 46.4382 50.3355 48.6148 48.3018Z" fill="white" fill-opacity="0.6"/>
<path fill-rule="evenodd" clip-rule="evenodd" d="M33.2147 20.9543C30.9061 23.263 27.7764 24.562 24.5114 24.5661C21.2468 24.562 18.1167 23.2629 15.8081 20.9543C13.4993 18.6457 12.2008 15.516 12.1963 12.2514C12.8738 -4.08163 36.1471 -4.08583 36.8265 12.251C36.822 15.516 35.5234 18.6457 33.2147 20.9543ZM20.7191 18.2132L24.1884 15.9301C24.3467 15.8261 24.5411 15.8268 24.6983 15.9327L28.1326 18.2449C28.2918 18.352 28.4896 18.3515 28.6482 18.2437C28.8069 18.1357 28.8801 17.9519 28.8387 17.7646L27.8758 13.3841C27.8394 13.2188 27.8905 13.0586 28.0158 12.9448L31.226 10.0294C31.3642 9.90379 31.4122 9.71912 31.3526 9.54209C31.293 9.36507 31.143 9.24705 30.9568 9.2307L26.8268 8.86836C26.6462 8.85244 26.5001 8.74145 26.4364 8.57168L24.9085 4.49994C24.8402 4.31764 24.6748 4.20252 24.4802 4.20159C24.2856 4.20066 24.1191 4.31413 24.0489 4.49581L22.4774 8.5641C22.412 8.73336 22.2646 8.84299 22.0835 8.85686L17.9668 9.1725C17.7804 9.18689 17.6291 9.30325 17.5676 9.47965C17.5061 9.65616 17.5522 9.84135 17.6891 9.96848L20.8834 12.9301C21.0075 13.0451 21.0569 13.2054 21.019 13.3703L20.018 17.7259C19.9751 17.913 20.0463 18.0972 20.2038 18.2067C20.3612 18.3162 20.5587 18.3186 20.7191 18.2132Z" fill="white"/>
</svg>
