<svg width="52" height="41" viewBox="0 0 52 41" fill="none" xmlns="http://www.w3.org/2000/svg">
<path d="M19.0678 35.7236H32.9346C33.4132 35.7236 33.8013 36.2022 33.8013 36.5903V40.057C33.8013 40.5356 33.4132 40.9237 32.9346 40.9237H19.0678C18.5892 40.9237 18.2012 40.4451 18.2012 40.057V36.5903C18.2012 36.1117 18.5892 35.7236 19.0678 35.7236Z" fill="white" fill-opacity="0.6"/>
<path d="M19.0678 27.0566H32.9346C33.4132 27.0566 33.8013 27.5352 33.8013 27.9233V31.39C33.8013 31.8686 33.4132 32.2567 32.9346 32.2567H19.0678C18.5892 32.2567 18.2012 31.7781 18.2012 31.39V27.9233C18.2012 27.4447 18.5892 27.0566 19.0678 27.0566Z" fill="white" fill-opacity="0.6"/>
<path d="M37.2666 27.0566H51.1333C51.6119 27.0566 52 27.5352 52 27.9233V31.39C52 31.8686 51.6119 32.2567 51.1333 32.2567H37.2666C36.788 32.2567 36.3999 31.7781 36.3999 31.39V27.9233C36.3999 27.4447 36.788 27.0566 37.2666 27.0566Z" fill="white" fill-opacity="0.6"/>
<path d="M0.866673 35.7236H14.7334C15.212 35.7236 15.6001 36.2022 15.6001 36.5903V40.057C15.6001 40.5356 15.212 40.9237 14.7334 40.9237H0.866673C0.388071 40.9237 0 40.4451 0 40.057V36.5903C0 36.1117 0.388071 35.7236 0.866673 35.7236Z" fill="white" fill-opacity="0.6"/>
<path d="M37.2666 35.7236H51.1333C51.6119 35.7236 52 36.2022 52 36.5903V40.057C52 40.5356 51.6119 40.9237 51.1333 40.9237H37.2666C36.788 40.9237 36.3999 40.4451 36.3999 40.057V36.5903C36.3999 36.1117 36.788 35.7236 37.2666 35.7236Z" fill="white" fill-opacity="0.6"/>
<path d="M6.52533 31.6937C6.91462 32.106 7.56843 32.1124 7.96577 31.7079L19.0509 20.4233C19.2389 20.2319 19.496 20.124 19.7643 20.124H30.2262C30.4742 20.124 30.7134 20.0319 30.8973 19.8654L44.047 7.96108C44.4415 7.60401 45.0464 7.61831 45.4236 7.99362L46.3181 8.88385C46.8834 9.44646 47.8476 9.1533 48.0041 8.37121L49.3848 1.46946C49.5247 0.770118 48.9085 0.153309 48.209 0.29253L41.272 1.67324C40.4872 1.82943 40.1946 2.79824 40.7617 3.36274L41.3762 3.97439C41.7827 4.37902 41.7662 5.04194 41.3402 5.42594L29.164 16.4003C28.9803 16.5658 28.7418 16.6574 28.4945 16.6574H18.0263C17.761 16.6574 17.5065 16.7629 17.319 16.9506L5.29845 28.9803C4.91605 29.363 4.90733 29.9804 5.27877 30.3737L6.52533 31.6937Z" fill="white"/>
<path d="M37.2666 18.3906H51.1333C51.6119 18.3906 52 18.8692 52 19.2573V22.724C52 23.2026 51.6119 23.5907 51.1333 23.5907H37.2666C36.788 23.5907 36.3999 23.1121 36.3999 22.724V19.2573C36.3999 18.7787 36.788 18.3906 37.2666 18.3906Z" fill="white" fill-opacity="0.6"/>
</svg>
