<svg width="162" height="48" viewBox="0 0 162 48" fill="none" xmlns="http://www.w3.org/2000/svg">
<g clip-path="url(#clip0_1739_5514)">
<path d="M10.5424 38.3359H0.958403C0.429091 38.3359 0 38.765 0 39.2943V41.2111C0 41.7405 0.429091 42.1695 0.958403 42.1695H10.5424C11.0717 42.1695 11.5008 41.7405 11.5008 41.2111V39.2943C11.5008 38.765 11.0717 38.3359 10.5424 38.3359Z" fill="#4A7EFF"/>
<path d="M12.4592 30.6689H2.87515C2.34584 30.6689 1.91675 31.098 1.91675 31.6273V33.5442C1.91675 34.0735 2.34584 34.5026 2.87515 34.5026H12.4592C12.9885 34.5026 13.4176 34.0735 13.4176 33.5442V31.6273C13.4176 31.098 12.9885 30.6689 12.4592 30.6689Z" fill="#4A7EFF"/>
<path d="M25.8769 38.3359H16.2929C15.7636 38.3359 15.3345 38.765 15.3345 39.2943V41.2111C15.3345 41.7405 15.7636 42.1695 16.2929 42.1695H25.8769C26.4062 42.1695 26.8353 41.7405 26.8353 41.2111V39.2943C26.8353 38.765 26.4062 38.3359 25.8769 38.3359Z" fill="#40D7FF"/>
<path d="M27.7936 30.6689H18.2096C17.6803 30.6689 17.2512 31.098 17.2512 31.6273V33.5442C17.2512 34.0735 17.6803 34.5026 18.2096 34.5026H27.7936C28.323 34.5026 28.7521 34.0735 28.7521 33.5442V31.6273C28.7521 31.098 28.323 30.6689 27.7936 30.6689Z" fill="#40D7FF"/>
<path d="M25.8769 23.0015H16.2929C15.7636 23.0015 15.3345 23.4306 15.3345 23.9599V25.8767C15.3345 26.406 15.7636 26.8351 16.2929 26.8351H25.8769C26.4062 26.8351 26.8353 26.406 26.8353 25.8767V23.9599C26.8353 23.4306 26.4062 23.0015 25.8769 23.0015Z" fill="#40D7FF"/>
<path d="M27.7936 15.3345H18.2096C17.6803 15.3345 17.2512 15.7636 17.2512 16.2929V18.2097C17.2512 18.739 17.6803 19.1681 18.2096 19.1681H27.7936C28.323 19.1681 28.7521 18.739 28.7521 18.2097V16.2929C28.7521 15.7636 28.323 15.3345 27.7936 15.3345Z" fill="#40D7FF"/>
<path d="M41.2114 38.3359H31.6273C31.098 38.3359 30.6689 38.765 30.6689 39.2943V41.2111C30.6689 41.7405 31.098 42.1695 31.6273 42.1695H41.2114C41.7407 42.1695 42.1698 41.7405 42.1698 41.2111V39.2943C42.1698 38.765 41.7407 38.3359 41.2114 38.3359Z" fill="#55FEBE"/>
<path d="M43.1284 30.6689H33.5443C33.015 30.6689 32.5859 31.098 32.5859 31.6273V33.5442C32.5859 34.0735 33.015 34.5026 33.5443 34.5026H43.1284C43.6577 34.5026 44.0868 34.0735 44.0868 33.5442V31.6273C44.0868 31.098 43.6577 30.6689 43.1284 30.6689Z" fill="#55FEBE"/>
<path d="M41.2114 23.0015H31.6273C31.098 23.0015 30.6689 23.4306 30.6689 23.9599V25.8767C30.6689 26.406 31.098 26.8351 31.6273 26.8351H41.2114C41.7407 26.8351 42.1698 26.406 42.1698 25.8767V23.9599C42.1698 23.4306 41.7407 23.0015 41.2114 23.0015Z" fill="#55FEBE"/>
<path d="M43.1284 15.3345H33.5443C33.015 15.3345 32.5859 15.7636 32.5859 16.2929V18.2097C32.5859 18.739 33.015 19.1681 33.5443 19.1681H43.1284C43.6577 19.1681 44.0868 18.739 44.0868 18.2097V16.2929C44.0868 15.7636 43.6577 15.3345 43.1284 15.3345Z" fill="#55FEBE"/>
<path d="M41.2114 7.66699H31.6273C31.098 7.66699 30.6689 8.09608 30.6689 8.62539V10.5422C30.6689 11.0715 31.098 11.5006 31.6273 11.5006H41.2114C41.7407 11.5006 42.1698 11.0715 42.1698 10.5422V8.62539C42.1698 8.09608 41.7407 7.66699 41.2114 7.66699Z" fill="#55FEBE"/>
<path d="M43.1284 0H33.5443C33.015 0 32.5859 0.429091 32.5859 0.958403V2.87521C32.5859 3.40452 33.015 3.83361 33.5443 3.83361H43.1284C43.6577 3.83361 44.0868 3.40452 44.0868 2.87521V0.958403C44.0868 0.429091 43.6577 0 43.1284 0Z" fill="#55FEBE"/>
<path d="M70.4469 13.0096L70.4469 13.0096L70.4509 13.0095C70.924 12.9997 71.3836 12.8504 71.7722 12.5805C72.1608 12.3105 72.461 11.9318 72.6353 11.4919C72.8096 11.052 72.8501 10.5705 72.7518 10.1076C72.6535 9.64477 72.4208 9.22124 72.0828 8.89012C71.7448 8.559 71.3166 8.33503 70.8518 8.24627C70.387 8.15752 69.9064 8.20793 69.4702 8.3912C69.034 8.57447 68.6615 8.88244 68.3996 9.27649C68.1377 9.67054 67.9979 10.1331 67.9978 10.6063H67.9978L67.9978 10.6104C68.0081 11.2521 68.271 11.8639 68.7295 12.313C69.188 12.7622 69.8051 13.0125 70.4469 13.0096Z" fill="#060E55" stroke="#060E55" stroke-width="0.5"/>
<path d="M62.987 23.6085V23.3585H62.737H59.4209H59.1709V23.6085V32.4418C59.1709 39.4665 64.3644 44.7038 71.3913 44.7038H71.5607C78.6292 44.7038 83.9121 39.4824 83.9121 32.4418V12.0278V11.7778H83.6621H80.3077H80.0577V12.0278V32.4418C80.0577 34.9367 79.1755 37.0342 77.6818 38.5078C76.1878 39.9817 74.0671 40.8462 71.5639 40.8462H71.3913C68.9109 40.8462 66.813 39.9853 65.3358 38.5135C63.8588 37.0419 62.987 34.9442 62.987 32.4418V23.6085Z" fill="#060E55" stroke="#060E55" stroke-width="0.5"/>
<path d="M127.043 11.9572L126.863 12.0099V12.1971V13.8241C123.796 14.8122 121.912 17.5431 121.825 20.9345L121.825 20.9345V20.941V24.425C121.815 25.3827 122.023 26.3302 122.436 27.1949C122.751 27.8567 123.179 28.4565 123.699 28.9684H95.1183V28.9682L95.1097 28.9685C94.6475 28.9844 94.1977 28.817 93.8584 28.5028C93.5203 28.1898 93.3191 27.7562 93.2982 27.2961V27.2959V27.2955V27.2952V27.2948V27.2944V27.2941V27.2937V27.2934V27.293V27.2927V27.2923V27.292V27.2916V27.2912V27.2909V27.2905V27.2902V27.2898V27.2895V27.2891V27.2888V27.2884V27.288V27.2877V27.2873V27.287V27.2866V27.2863V27.2859V27.2856V27.2852V27.2848V27.2845V27.2841V27.2838V27.2834V27.2831V27.2827V27.2824V27.282V27.2816V27.2813V27.2809V27.2806V27.2802V27.2799V27.2795V27.2791V27.2788V27.2784V27.2781V27.2777V27.2774V27.277V27.2767V27.2763V27.2759V27.2756V27.2752V27.2749V27.2745V27.2742V27.2738V27.2735V27.2731V27.2727V27.2724V27.272V27.2717V27.2713V27.271V27.2706V27.2703V27.2699V27.2695V27.2692V27.2688V27.2685V27.2681V27.2678V27.2674V27.2671V27.2667V27.2663V27.266V27.2656V27.2653V27.2649V27.2646V27.2642V27.2639V27.2635V27.2631V27.2628V27.2624V27.2621V27.2617V27.2614V27.261V27.2607V27.2603V27.2599V27.2596V27.2592V27.2589V27.2585V27.2582V27.2578V27.2575V27.2571V27.2567V27.2564V27.256V27.2557V27.2553V27.255V27.2546V27.2543V27.2539V27.2535V27.2532V27.2528V27.2525V27.2521V27.2518V27.2514V27.2511V27.2507V27.2503V27.25V27.2496V27.2493V27.2489V27.2486V27.2482V27.2479V27.2475V27.2471V27.2468V27.2464V27.2461V27.2457V27.2454V27.245V27.2446V27.2443V27.2439V27.2436V27.2432V27.2429V27.2425V27.2422V27.2418V27.2414V27.2411V27.2407V27.2404V27.24V27.2397V27.2393V27.239V27.2386V27.2382V27.2379V27.2375V27.2372V27.2368V27.2365V27.2361V27.2358V27.2354V27.235V27.2347V27.2343V27.234V27.2336V27.2333V27.2329V27.2326V27.2322V27.2318V27.2315V27.2311V27.2308V27.2304V27.2301V27.2297V27.2294V27.229V27.2286V27.2283V27.2279V27.2276V27.2272V27.2269V27.2265V27.2262V27.2258V27.2254V27.2251V27.2247V27.2244V27.224V27.2237V27.2233V27.223V27.2226V27.2222V27.2219V27.2215V27.2212V27.2208V27.2205V27.2201V27.2198V27.2194V27.219V27.2187V27.2183V27.218V27.2176V27.2173V27.2169V27.2166V27.2162V27.2158V27.2155V27.2151V27.2148V27.2144V27.2141V27.2137V27.2134V27.213V27.2126V27.2123V27.2119V27.2116V27.2112V27.2109V27.2105V27.2102V27.2098V27.2094V27.2091V27.2087V27.2084V27.208V27.2077V27.2073V27.2069V27.2066V27.2062V27.2059V27.2055V27.2052V27.2048V27.2045V27.2041V27.2037V27.2034V27.203V27.2027V27.2023V27.202V27.2016V27.2013V27.2009V27.2005V27.2002V27.1998V27.1995V27.1991V27.1988V27.1984V27.1981V27.1977V27.1973V27.197V27.1966V27.1963V27.1959V27.1956V27.1952V27.1949V27.1945V27.1941V27.1938V27.1934V27.1931V27.1927V27.1924V27.192V27.1917V27.1913V27.1909V27.1906V27.1902V27.1899V27.1895V27.1892V27.1888V27.1885V27.1881V27.1877V27.1874V27.187V27.1867V27.1863V27.186V27.1856V27.1853V27.1849V27.1845V27.1842V27.1838V27.1835V27.1831V27.1828V27.1824V27.1821V27.1817V27.1813V27.181V27.1806V27.1803V27.1799V27.1796V27.1792V27.1789V27.1785V27.1781V27.1778V27.1774V27.1771V27.1767V27.1764V27.176V27.1757V27.1753V27.1749V27.1746V27.1742V27.1739V27.1735V27.1732V27.1728V27.1725V27.1721V27.1717V27.1714V27.171V27.1707V27.1703V27.17V27.1696V27.1693V27.1689V27.1685V27.1682V27.1678V27.1675V27.1671V27.1668V27.1664V27.166V27.1657V27.1653V27.165V27.1646V27.1643V27.1639V27.1636V27.1632V27.1628V27.1625V27.1621V27.1618V27.1614V27.1611V27.1607V27.1604V27.16V27.1596V27.1593V27.1589V27.1586V27.1582V27.1579V27.1575V27.1572V27.1568V27.1564V27.1561V27.1557V27.1554V27.155V27.1547V27.1543V27.154V27.1536V27.1532V27.1529V27.1525V27.1522V27.1518V27.1515V27.1511V27.1508V27.1504V27.15V27.1497V27.1493V27.149V27.1486V27.1483V27.1479V27.1476V27.1472V27.1468V27.1465V27.1461V27.1458V27.1454V27.1451V27.1447V27.1444V27.144V27.1436V27.1433V27.1429V27.1426V27.1422V27.1419V27.1415V27.1412V27.1408V27.1404V27.1401V27.1397V27.1394V27.139V27.1387V27.1383V27.138V27.1376V27.1372V27.1369V27.1365V27.1362V27.1358V27.1355V27.1351V27.1348V27.1344V27.134V27.1337V27.1333V27.133V27.1326V27.1323V27.1319V27.1315V27.1312V27.1308V27.1305V27.1301V27.1298V27.1294V27.1291V27.1287V27.1283V27.128V27.1276V27.1273V27.1269V27.1266V27.1262V27.1259V27.1255V27.1251V27.1248V27.1244V27.1241V27.1237V27.1234V27.123V27.1227V27.1223V27.1219V27.1216V27.1212V27.1209V27.1205V27.1202V27.1198V27.1195V2.60352V2.35352H93.0482H89.6937H89.4437V2.60352V28.1393C89.42 29.3573 89.8806 30.5351 90.7245 31.4138C91.569 32.2931 92.7282 32.8011 93.9472 32.8259L93.9471 32.826H93.9522H140.566C145.342 32.826 149.256 29.2095 149.256 24.3529L149.256 18.9603L149.256 18.9565C149.203 15.4065 146.587 12.7762 142.555 11.4819C138.522 10.1871 133.022 10.2042 127.043 11.9572ZM134.831 28.9588H129.796C127.276 28.7051 125.21 26.8143 125.21 24.2986V21.1039C125.21 19.6879 125.625 18.5621 126.425 17.7891C127.227 17.0152 128.449 16.5619 130.129 16.5619C131.675 16.5619 132.844 17.03 133.626 17.8145C134.408 18.5996 134.831 19.7289 134.831 21.1039V28.9588ZM145.373 24.126C145.373 26.9029 143.133 28.9588 140.285 28.9588H138.209V21.1997C138.209 19.01 137.489 17.2934 136.259 16.1139C135.416 15.3049 134.344 14.7593 133.125 14.4827C136.133 14.0774 138.959 14.2181 141.14 14.8504C143.74 15.6044 145.332 17.0214 145.373 18.9628V24.126Z" fill="#060E55" stroke="#060E55" stroke-width="0.5"/>
<path d="M158.031 11.6919H157.781V11.9419V33.5155C157.781 35.0276 157.254 36.2968 156.369 37.1872C155.483 38.0776 154.225 38.6038 152.734 38.6038H150.54H150.29V38.8538V42.1699V42.4199H150.54H152.734C157.824 42.4199 161.642 38.6055 161.642 33.5155V11.9419V11.6919H161.392H158.031Z" fill="#060E55" stroke="#060E55" stroke-width="0.5"/>
<path d="M100.594 47.8595H99.9296L96.5624 43.0675H94.4507V47.8595H93.8853V37.5088H96.7988C98.9233 37.5088 100.016 38.3522 100.016 40.0358V40.5054C100.016 41.9686 99.1852 42.7672 97.5176 42.9206L97.1151 42.9621L100.594 47.8595ZM99.4344 40.5118V40.0422C99.4344 38.6748 98.5782 38.0423 96.7988 38.0423H94.4507V42.5532H96.7988C98.5782 42.5532 99.4344 41.8983 99.4344 40.5182V40.5118Z" fill="#060E55"/>
<path d="M103.137 44.2017C103.137 41.6236 104.709 40.2979 106.558 40.2979C108.562 40.2979 109.996 41.6492 109.942 44.272H103.744C103.744 46.3134 104.929 47.5306 106.696 47.5306C108.117 47.5306 109.319 46.7 109.335 45.3199H109.897C109.798 47.0194 108.459 48.0002 106.68 48.0002C104.584 48.0002 103.137 46.4987 103.137 44.2017ZM109.376 43.8312C109.376 42.0645 108.354 40.7675 106.558 40.7675C105.041 40.7675 103.811 41.9271 103.744 43.8312H109.376Z" fill="#060E55"/>
<path d="M119.74 43.0452V47.8595H119.133V43.1122C119.133 41.5532 118.318 40.7929 116.896 40.7929C115.241 40.7929 114.04 41.9941 114.04 43.2368V47.8595H113.446V37.5088H114.05V42.0644C114.711 40.5597 116.312 40.269 117.043 40.269C118.733 40.269 119.74 41.2082 119.74 43.0452Z" fill="#060E55"/>
<path d="M129.285 42.8627V47.8592H128.72V46.5622C128.375 47.2682 127.091 47.9998 125.685 47.9998C124.151 47.9998 123.171 47.2522 123.171 45.9552C123.171 44.492 124.401 43.7764 126.541 43.7764H128.678V42.8627C128.678 41.3868 127.72 40.7798 126.375 40.7798C125.145 40.7798 124.247 41.3868 124.056 42.4219H123.49C123.64 41.1248 124.841 40.3102 126.388 40.3102C128.142 40.2974 129.285 41.1791 129.285 42.8627ZM128.678 44.2013H126.541C125.263 44.2013 123.765 44.5208 123.765 45.9264C123.765 46.936 124.509 47.5238 125.809 47.5238C127.11 47.5238 128.665 46.6676 128.685 45.6741L128.678 44.2013Z" fill="#060E55"/>
<path d="M139.444 43.0165V47.8596H138.805V43.0996C138.805 41.5406 138.007 40.7675 136.569 40.7675C134.927 40.7675 133.726 41.9942 133.726 43.2242V47.8596H133.119V40.4065H133.713V42.0038C134.419 40.5119 136.02 40.2627 136.722 40.2627C138.451 40.2691 139.444 41.2083 139.444 43.0165Z" fill="#060E55"/>
</g>
<defs>
<clipPath id="clip0_1739_5514">
<rect width="161.392" height="48" fill="white"/>
</clipPath>
</defs>
</svg>
